<?xml version="1.0" standalone="no"?>
<!DOCTYPE svg PUBLIC "-//W3C//DTD SVG 20010904//EN"
 "http://www.w3.org/TR/2001/REC-SVG-20010904/DTD/svg10.dtd">
<svg version="1.0" xmlns="http://www.w3.org/2000/svg"
 width="1024.000000pt" height="1024.000000pt" viewBox="0 0 1024.000000 1024.000000"
 preserveAspectRatio="xMidYMid meet">

<g transform="translate(0.000000,1024.000000) scale(0.100000,-0.100000)"
fill="#171247ff" stroke="none">
<path d="M0 5120 l0 -5120 5120 0 5120 0 0 5120 0 5120 -5120 0 -5120 0 0
-5120z m8409 3500 c23 -38 44 -70 45 -70 2 0 23 32 47 70 37 60 48 70 72 70
l28 0 -37 -57 c-20 -32 -47 -74 -60 -93 -20 -29 -24 -47 -24 -112 0 -77 0 -78
-25 -78 -25 0 -25 1 -25 78 0 65 -4 83 -24 112 -13 19 -40 61 -60 93 l-37 57
28 0 c24 0 35 -10 72 -70z m681 -343 c0 -12 -42 -81 -95 -155 l-95 -132 95 0
c88 0 95 -1 95 -20 0 -19 -7 -20 -125 -20 -109 0 -125 2 -125 16 0 9 43 77 95
150 52 73 95 135 95 138 0 3 -43 6 -95 6 -88 0 -95 1 -95 20 0 19 7 20 125 20
123 0 125 0 125 -23z m-7764 -92 c11 -16 11 -25 1 -45 -12 -24 -15 -25 -141
-28 -140 -3 -156 2 -156 48 0 50 34 59 194 50 74 -4 91 -8 102 -25z m3195 15
c52 -5 99 -10 106 -10 20 0 43 -30 43 -55 0 -44 -34 -56 -125 -44 -51 7 -465
13 -1140 16 -706 3 -1064 8 -1072 15 -21 17 -15 65 10 83 20 16 103 16 1053
10 567 -3 1073 -10 1125 -15z m4037 -17 l3 -33 -335 0 -336 0 0 35 0 35 333
-2 332 -3 3 -32z m-6488 8 c14 -27 13 -47 -6 -65 -13 -14 -50 -16 -244 -16
-246 0 -260 3 -260 54 0 44 11 46 262 46 224 0 238 -1 248 -19z m5578 -128
l-3 -148 -72 -3 -73 -3 0 -109 0 -110 -35 0 -35 0 0 -292 c0 -256 -3 -298 -18
-330 -20 -44 -152 -197 -169 -198 -18 0 -142 157 -169 215 -23 49 -24 57 -24
326 l0 276 -22 -2 c-42 -4 -48 11 -48 121 l0 104 -65 0 c-47 0 -67 4 -71 14
-3 8 -6 58 -7 112 l-2 99 -170 5 -170 5 -3 33 -3 32 581 0 581 0 -3 -147z
m-2597 38 c169 -47 421 -142 453 -171 24 -23 15 -67 -19 -82 -19 -9 -37 -5
-102 22 -91 38 -312 114 -398 136 -73 19 -85 28 -85 65 0 31 34 62 60 55 8 -3
49 -14 91 -25z m3146 -157 c5 -14 -66 -127 -163 -256 l-36 -48 101 0 c94 0
101 -1 101 -20 0 -19 -7 -20 -130 -20 -123 0 -130 1 -130 20 0 11 45 81 100
155 55 74 100 136 100 138 0 1 -43 1 -95 -1 l-95 -3 0 25 0 26 120 0 c100 0
122 -3 127 -16z m-2332 -190 c165 -93 400 -255 484 -333 35 -33 36 -63 3 -88
-25 -20 -37 -16 -104 35 -163 124 -300 213 -540 352 -21 12 -24 60 -6 78 23
23 64 12 163 -44z m-3461 -266 c33 -14 42 -43 23 -72 -12 -17 -32 -25 -89 -35
-40 -7 -107 -21 -150 -32 -93 -23 -102 -23 -122 -3 -21 21 -20 57 2 77 15 13
193 58 277 70 17 2 31 5 32 6 1 0 13 -4 27 -11z m2471 -166 c317 -62 565 -184
726 -359 114 -125 218 -319 254 -473 36 -159 30 -359 -16 -527 -71 -259 -250
-467 -527 -616 l-83 -44 78 -28 c189 -67 320 -151 457 -296 131 -137 197 -285
227 -509 15 -111 5 -309 -21 -425 -131 -580 -501 -891 -1205 -1012 -89 -15
-213 -17 -1109 -20 -903 -4 -1011 -2 -1032 12 l-24 15 0 2137 c0 1993 1 2138
17 2155 16 18 52 19 1082 15 1041 -3 1069 -4 1176 -25z m-3037 -28 c14 -9 22
-26 22 -44 0 -23 -11 -36 -64 -74 -144 -102 -268 -250 -347 -411 -77 -158
-108 -311 -109 -525 0 -53 -5 -91 -12 -98 -19 -19 -66 -15 -78 7 -15 29 -12
273 4 367 38 217 153 440 309 603 59 60 223 191 241 191 6 0 22 -7 34 -16z
m4961 -281 c240 -240 371 -391 371 -426 0 -30 -18 -47 -51 -47 -22 0 -49 26
-152 143 -69 78 -202 218 -296 310 -172 168 -190 194 -159 225 7 7 25 12 41
12 25 0 63 -34 246 -217z m-199 -376 l172 -166 -110 -197 -109 -197 76 -106
c42 -58 102 -148 134 -198 57 -91 60 -93 97 -93 34 0 302 33 376 46 27 5 32 2
42 -23 30 -80 143 -467 138 -478 -2 -7 -93 -60 -200 -117 l-195 -103 -1 -205
c0 -113 -3 -235 -6 -271 l-7 -65 159 -100 c86 -54 168 -106 181 -114 13 -8 23
-22 23 -31 0 -10 -29 -93 -65 -186 -36 -92 -77 -199 -91 -236 -15 -38 -32 -71
-38 -73 -7 -3 -75 9 -152 26 -76 17 -170 37 -207 44 l-68 13 -46 -61 c-63 -82
-145 -179 -210 -246 l-53 -56 29 -74 c83 -207 128 -345 117 -357 -6 -7 -108
-71 -226 -144 -118 -72 -218 -133 -221 -135 -8 -4 -409 421 -409 434 0 4 12
19 26 33 40 37 146 167 193 237 93 139 171 323 208 494 11 55 30 103 54 143
148 245 204 448 204 745 0 240 -28 376 -110 540 -42 84 -160 260 -219 329 -32
36 -45 59 -40 70 18 44 56 185 69 260 18 101 19 291 3 422 l-12 97 138 151
138 151 24 -19 c12 -10 100 -93 194 -184z m818 -377 c98 -152 231 -381 284
-487 29 -60 30 -64 14 -88 -19 -29 -56 -33 -78 -7 -8 9 -37 58 -63 107 -68
127 -165 290 -257 431 -43 67 -78 132 -78 145 0 34 19 50 55 47 26 -3 40 -19
123 -148z m-6090 -392 c17 -17 17 -439 0 -456 -17 -17 -48 -15 -70 5 -16 15
-18 35 -18 228 0 226 2 235 50 235 14 0 31 -5 38 -12z m6500 -380 c24 -31 222
-612 222 -654 0 -42 -63 -72 -88 -41 -6 7 -33 85 -61 172 -27 88 -73 223 -102
300 -58 156 -67 198 -49 220 15 18 64 20 78 3z m-6507 -338 c18 -10 19 -24 19
-323 0 -230 -3 -316 -12 -325 -19 -19 -66 -15 -78 7 -6 12 -10 131 -10 317 0
263 2 300 17 316 18 20 36 23 64 8z m6783 -582 c13 -21 142 -617 154 -711 2
-21 -1 -44 -8 -52 -16 -19 -64 -19 -80 0 -7 8 -41 154 -76 323 -93 448 -89
428 -74 447 19 23 67 19 84 -7z m-6783 -318 c18 -10 19 -24 19 -273 0 -191 -3
-266 -12 -275 -19 -19 -66 -15 -78 7 -6 12 -10 117 -10 270 0 247 0 250 22
265 26 19 33 19 59 6z m6981 -662 c9 -7 25 -42 37 -78 28 -87 90 -195 145
-257 48 -54 56 -81 30 -107 -29 -30 -60 -19 -111 38 -59 67 -103 139 -148 242
-41 94 -44 136 -13 158 27 19 39 20 60 4z m-7042 -138 c11 -6 24 -20 30 -31
17 -30 -27 -97 -129 -200 -126 -126 -276 -207 -395 -212 -42 -2 -51 2 -69 25
-19 25 -19 29 -4 51 12 19 28 25 69 30 71 8 217 82 290 147 31 28 82 84 113
125 31 41 61 75 66 75 6 0 19 -5 29 -10z m6538 -207 l-3 -138 -47 -3 -48 -3 0
-267 0 -267 -77 -122 c-43 -67 -83 -122 -89 -123 -11 0 -154 213 -154 231 0 5
15 9 34 9 31 0 38 -6 76 -66 l42 -66 54 81 c54 80 54 81 54 158 l0 78 -87 -88
-87 -88 -50 3 -51 3 2 260 2 260 -42 5 -42 5 -3 138 -3 137 261 0 261 0 -3
-137z m998 -217 c78 -33 213 -56 330 -56 89 0 94 -1 110 -25 22 -33 6 -72 -32
-81 -41 -10 -251 3 -323 21 -78 19 -190 62 -213 83 -22 19 -23 41 -2 71 20 27
40 25 130 -13z m-6751 -122 c9 -4 31 -30 50 -60 76 -118 195 -223 387 -339 38
-24 47 -58 22 -86 -26 -29 -53 -23 -148 34 -106 63 -248 192 -328 300 -61 83
-69 109 -41 139 17 19 31 22 58 12z m4998 -321 c92 -7 135 -32 123 -71 -13
-41 -49 -55 -106 -43 -28 6 -70 11 -92 11 -50 0 -78 22 -78 61 0 31 35 63 59
54 9 -3 51 -9 94 -12z m-393 -13 c11 -11 20 -26 20 -33 0 -22 -31 -57 -50 -57
-53 0 -263 -71 -369 -124 -79 -40 -245 -94 -356 -116 -76 -14 -146 -20 -249
-20 -152 0 -166 4 -166 50 0 42 17 50 102 50 203 0 400 40 575 115 182 79 244
102 343 129 117 31 125 31 150 6z m-3652 -235 c53 -8 117 -15 143 -15 51 0 69
-13 69 -50 0 -43 -16 -50 -119 -50 -95 0 -306 36 -350 60 -30 16 -44 46 -31
70 19 35 39 38 116 18 41 -10 118 -25 172 -33z m1546 -31 c19 -18 20 -38 6
-65 -10 -18 -27 -19 -555 -19 -528 0 -545 1 -555 19 -14 27 -13 47 6 65 14 14
77 16 549 16 472 0 535 -2 549 -16z m698 -1 c22 -20 23 -46 2 -67 -13 -14 -48
-16 -229 -16 l-215 0 -16 25 c-15 23 -15 27 0 50 l16 25 212 0 c183 0 214 -2
230 -17z m2723 -26 c33 -8 77 -18 98 -22 50 -8 68 -42 43 -80 -11 -17 -26 -25
-44 -25 -41 0 -194 39 -219 56 -27 17 -30 50 -6 77 19 20 28 20 128 -6z m447
-64 c43 -38 1 -101 -58 -87 -56 13 -75 44 -54 85 14 25 85 26 112 2z m-840
-10 c32 -29 16 -73 -27 -73 -58 0 -59 88 -1 90 5 0 18 -7 28 -17z m6 -215 c28
-28 7 -78 -33 -78 -27 0 -45 18 -45 45 0 27 18 45 45 45 12 0 26 -5 33 -12z"/>
<path d="M6897 8058 l1 -83 346 -2 346 -2 0 84 0 85 -347 0 -348 0 2 -82z"/>
<path d="M7238 7903 l-198 -3 0 -80 0 -80 200 0 200 0 0 85 c0 47 -1 84 -2 83
-2 -2 -92 -4 -200 -5z"/>
<path d="M7227 7562 l-117 -117 0 -90 0 -90 135 135 135 135 0 72 c0 63 -2 73
-18 73 -9 0 -70 -53 -135 -118z"/>
<path d="M7110 7593 l0 -67 65 64 c36 35 65 66 65 67 0 2 -29 3 -65 3 l-65 0
0 -67z"/>
<path d="M7238 7309 c-136 -145 -140 -155 -98 -225 l23 -36 108 108 109 109 0
87 c0 49 -4 88 -9 88 -5 0 -65 -59 -133 -131z"/>
<path d="M7285 7090 l-90 -90 24 -22 23 -23 58 63 c45 49 61 74 69 110 5 26 9
48 7 49 -1 1 -42 -38 -91 -87z"/>
<path d="M3600 6080 l0 -502 448 4 c488 5 496 6 629 68 166 77 251 243 241
470 -10 205 -96 339 -257 400 -130 50 -161 53 -623 57 l-438 4 0 -501z"/>
<path d="M3610 4328 l0 -543 387 2 c566 2 604 6 753 79 178 88 270 251 270
479 0 221 -85 373 -253 455 -131 63 -135 64 -669 68 l-488 3 0 -543z"/>
<path d="M7340 3240 l0 -70 200 0 200 0 0 70 0 70 -200 0 -200 0 0 -70z"/>
<path d="M7420 2853 l0 -248 110 110 110 110 0 137 0 138 -110 0 -110 0 0
-247z"/>
</g>
</svg>
