<?xml version="1.0" encoding="UTF-8"?>
<svg xmlns="http://www.w3.org/2000/svg" xmlns:xlink="http://www.w3.org/1999/xlink" width="32px" height="32px" viewBox="0 0 32 31" version="1.1">
<g id="surface1">
<path style=" stroke:none;fill-rule:nonzero;fill:rgb(10%,10%,10%);fill-opacity:1;" d="M 12.492188 1.554688 C 12.664062 1.609375 12.839844 1.660156 13.015625 1.707031 C 13.257812 1.769531 13.5 1.839844 13.738281 1.910156 C 13.859375 1.945312 13.976562 1.976562 14.097656 2.011719 C 14.132812 2.023438 14.132812 2.023438 14.171875 2.035156 C 14.394531 2.097656 14.617188 2.160156 14.839844 2.222656 C 14.902344 2.242188 14.964844 2.257812 15.023438 2.277344 C 15.191406 2.324219 15.359375 2.371094 15.527344 2.414062 C 15.589844 2.433594 15.65625 2.449219 15.71875 2.46875 C 15.75 2.476562 15.777344 2.484375 15.808594 2.492188 C 16.015625 2.542969 16.140625 2.609375 16.273438 2.769531 C 16.351562 2.910156 16.3125 3.019531 16.265625 3.164062 C 16.261719 3.1875 16.253906 3.207031 16.246094 3.230469 C 16.226562 3.300781 16.203125 3.371094 16.179688 3.441406 C 16.164062 3.492188 16.152344 3.542969 16.136719 3.589844 C 16.097656 3.714844 16.058594 3.839844 16.019531 3.964844 C 15.992188 4.0625 15.960938 4.160156 15.929688 4.261719 C 15.921875 4.296875 15.910156 4.332031 15.898438 4.367188 C 15.894531 4.382812 15.886719 4.398438 15.882812 4.417969 C 15.867188 4.46875 15.851562 4.519531 15.835938 4.574219 C 15.753906 4.839844 15.671875 5.109375 15.59375 5.375 C 15.570312 5.445312 15.550781 5.515625 15.53125 5.585938 C 15.523438 5.605469 15.515625 5.628906 15.507812 5.652344 C 15.496094 5.699219 15.480469 5.746094 15.46875 5.789062 C 15.429688 5.921875 15.390625 6.054688 15.351562 6.1875 C 15.324219 6.265625 15.300781 6.347656 15.277344 6.429688 C 15.265625 6.464844 15.253906 6.503906 15.242188 6.542969 C 15.226562 6.59375 15.214844 6.644531 15.199219 6.695312 C 15.191406 6.710938 15.1875 6.726562 15.183594 6.742188 C 15.152344 6.847656 15.113281 6.949219 15.011719 7.007812 C 14.949219 7.019531 14.902344 7.027344 14.835938 7.019531 C 14.726562 6.933594 14.671875 6.8125 14.605469 6.695312 C 14.582031 6.652344 14.558594 6.609375 14.535156 6.566406 C 14.523438 6.542969 14.511719 6.523438 14.5 6.503906 C 14.460938 6.429688 14.417969 6.355469 14.375 6.28125 C 14.363281 6.261719 14.347656 6.238281 14.335938 6.21875 C 14.3125 6.179688 14.289062 6.144531 14.265625 6.109375 C 14.265625 6.089844 14.265625 6.070312 14.265625 6.050781 C 14.25 6.042969 14.238281 6.035156 14.222656 6.03125 C 14.210938 5.984375 14.195312 5.9375 14.183594 5.890625 C 14.171875 5.902344 14.15625 5.914062 14.144531 5.925781 C 14.070312 5.976562 14 6.011719 13.917969 6.042969 C 13.785156 6.105469 13.660156 6.171875 13.535156 6.246094 C 13.464844 6.289062 13.398438 6.328125 13.328125 6.367188 C 13.316406 6.371094 13.304688 6.378906 13.292969 6.386719 C 13.269531 6.398438 13.242188 6.414062 13.21875 6.425781 C 13.054688 6.515625 12.886719 6.609375 12.722656 6.703125 C 12.570312 6.789062 12.417969 6.875 12.265625 6.960938 C 12.207031 6.992188 12.144531 7.023438 12.085938 7.058594 C 12.027344 7.089844 11.964844 7.125 11.90625 7.160156 C 11.800781 7.214844 11.699219 7.273438 11.597656 7.332031 C 11.484375 7.398438 11.371094 7.457031 11.257812 7.519531 C 11.160156 7.570312 11.0625 7.625 10.96875 7.679688 C 10.84375 7.753906 10.71875 7.820312 10.59375 7.890625 C 10.558594 7.910156 10.523438 7.929688 10.484375 7.949219 C 10.46875 7.960938 10.46875 7.960938 10.449219 7.96875 C 10.378906 8.007812 10.308594 8.050781 10.238281 8.089844 C 10.167969 8.132812 10.09375 8.167969 10.019531 8.203125 C 9.957031 8.234375 9.894531 8.273438 9.832031 8.308594 C 9.765625 8.347656 9.699219 8.386719 9.632812 8.421875 C 9.550781 8.46875 9.46875 8.511719 9.386719 8.5625 C 9.296875 8.613281 9.203125 8.667969 9.109375 8.71875 C 9.03125 8.761719 8.953125 8.804688 8.875 8.851562 C 8.78125 8.902344 8.683594 8.953125 8.589844 9.003906 C 8.421875 9.09375 8.257812 9.183594 8.097656 9.28125 C 7.953125 9.363281 7.808594 9.441406 7.660156 9.519531 C 7.464844 9.625 7.269531 9.730469 7.082031 9.84375 C 7.066406 9.855469 7.050781 9.863281 7.035156 9.875 C 6.839844 9.988281 6.839844 9.988281 6.71875 10.167969 C 6.714844 10.21875 6.714844 10.269531 6.714844 10.320312 C 6.714844 10.339844 6.714844 10.359375 6.714844 10.378906 C 6.714844 10.445312 6.71875 10.511719 6.71875 10.578125 C 6.71875 10.628906 6.71875 10.675781 6.71875 10.726562 C 6.722656 10.835938 6.722656 10.945312 6.722656 11.054688 C 6.726562 11.238281 6.726562 11.417969 6.726562 11.597656 C 6.726562 11.628906 6.726562 11.664062 6.726562 11.695312 C 6.730469 11.746094 6.730469 11.796875 6.730469 11.847656 C 6.730469 11.953125 6.730469 12.0625 6.730469 12.167969 C 6.738281 13.199219 6.734375 14.234375 6.734375 15.265625 C 6.734375 15.328125 6.734375 15.386719 6.734375 15.449219 C 6.734375 15.464844 6.734375 15.480469 6.734375 15.496094 C 6.730469 15.738281 6.730469 15.984375 6.730469 16.226562 C 6.730469 16.476562 6.730469 16.726562 6.730469 16.976562 C 6.730469 17.128906 6.730469 17.277344 6.730469 17.429688 C 6.730469 17.542969 6.730469 17.65625 6.730469 17.773438 C 6.730469 17.816406 6.730469 17.863281 6.730469 17.910156 C 6.730469 17.972656 6.730469 18.039062 6.730469 18.101562 C 6.730469 18.121094 6.730469 18.136719 6.730469 18.15625 C 6.726562 18.3125 6.664062 18.429688 6.550781 18.546875 C 6.472656 18.621094 6.382812 18.667969 6.28125 18.714844 C 6.210938 18.75 6.144531 18.785156 6.074219 18.824219 C 6.0625 18.832031 6.050781 18.835938 6.039062 18.84375 C 5.972656 18.878906 5.914062 18.917969 5.855469 18.960938 C 5.824219 18.980469 5.789062 19 5.753906 19.015625 C 5.710938 19.039062 5.671875 19.066406 5.628906 19.089844 C 5.617188 19.097656 5.601562 19.105469 5.589844 19.113281 C 5.570312 19.125 5.570312 19.125 5.550781 19.136719 C 5.5 19.167969 5.457031 19.195312 5.402344 19.214844 C 5.347656 19.238281 5.304688 19.261719 5.257812 19.292969 C 5.167969 19.351562 5.078125 19.398438 4.984375 19.441406 C 4.910156 19.476562 4.847656 19.519531 4.777344 19.566406 C 4.726562 19.597656 4.667969 19.625 4.613281 19.652344 C 4.554688 19.6875 4.5 19.722656 4.441406 19.757812 C 4.359375 19.808594 4.277344 19.851562 4.195312 19.894531 C 4.082031 19.953125 3.976562 20.015625 3.867188 20.078125 C 3.8125 20.109375 3.757812 20.136719 3.699219 20.167969 C 3.636719 20.199219 3.574219 20.234375 3.515625 20.277344 C 3.445312 20.324219 3.382812 20.351562 3.304688 20.382812 C 3.300781 20.390625 3.292969 20.394531 3.285156 20.402344 C 3.222656 20.414062 3.179688 20.410156 3.121094 20.378906 C 3.035156 20.320312 2.988281 20.285156 2.960938 20.1875 C 2.953125 20.121094 2.953125 20.054688 2.953125 19.988281 C 2.953125 19.964844 2.953125 19.945312 2.953125 19.925781 C 2.953125 19.855469 2.953125 19.789062 2.953125 19.71875 C 2.953125 19.671875 2.953125 19.621094 2.953125 19.570312 C 2.953125 19.464844 2.953125 19.355469 2.953125 19.25 C 2.953125 19.089844 2.953125 18.929688 2.953125 18.769531 C 2.953125 18.46875 2.953125 18.164062 2.953125 17.863281 C 2.953125 17.628906 2.953125 17.394531 2.953125 17.160156 C 2.953125 17.09375 2.953125 17.027344 2.953125 16.960938 C 2.953125 16.945312 2.953125 16.925781 2.953125 16.910156 C 2.953125 16.441406 2.953125 15.96875 2.953125 15.5 C 2.953125 15.484375 2.953125 15.464844 2.953125 15.445312 C 2.953125 15.355469 2.953125 15.265625 2.953125 15.175781 C 2.953125 15.160156 2.953125 15.140625 2.953125 15.125 C 2.953125 15.085938 2.953125 15.050781 2.953125 15.015625 C 2.953125 14.453125 2.953125 13.894531 2.949219 13.332031 C 2.949219 12.703125 2.949219 12.070312 2.949219 11.441406 C 2.949219 11.375 2.949219 11.304688 2.949219 11.238281 C 2.949219 11.222656 2.949219 11.207031 2.949219 11.1875 C 2.949219 10.921875 2.949219 10.65625 2.949219 10.390625 C 2.949219 10.121094 2.949219 9.855469 2.949219 9.585938 C 2.949219 9.425781 2.949219 9.269531 2.949219 9.109375 C 2.949219 8.992188 2.949219 8.871094 2.949219 8.753906 C 2.949219 8.707031 2.949219 8.65625 2.949219 8.609375 C 2.949219 8.542969 2.949219 8.480469 2.949219 8.414062 C 2.949219 8.394531 2.949219 8.375 2.949219 8.355469 C 2.949219 8.179688 3.011719 8.039062 3.136719 7.910156 C 3.285156 7.78125 3.464844 7.6875 3.640625 7.601562 C 3.683594 7.578125 3.722656 7.550781 3.761719 7.523438 C 3.835938 7.472656 3.914062 7.433594 3.996094 7.394531 C 4.109375 7.34375 4.214844 7.285156 4.320312 7.222656 C 4.367188 7.195312 4.410156 7.171875 4.457031 7.148438 C 4.527344 7.113281 4.59375 7.070312 4.65625 7.03125 C 4.761719 6.964844 4.867188 6.910156 4.976562 6.855469 C 5.085938 6.796875 5.191406 6.734375 5.296875 6.671875 C 5.445312 6.582031 5.445312 6.582031 5.527344 6.550781 C 5.59375 6.527344 5.59375 6.527344 5.640625 6.488281 C 5.6875 6.449219 5.730469 6.425781 5.789062 6.398438 C 5.863281 6.363281 5.9375 6.324219 6.007812 6.277344 C 6.085938 6.230469 6.164062 6.1875 6.246094 6.148438 C 6.339844 6.105469 6.425781 6.054688 6.511719 5.996094 C 6.570312 5.957031 6.632812 5.925781 6.695312 5.890625 C 6.726562 5.875 6.726562 5.875 6.757812 5.859375 C 6.941406 5.761719 6.941406 5.761719 7.023438 5.722656 C 7.078125 5.695312 7.125 5.667969 7.171875 5.632812 C 7.242188 5.589844 7.3125 5.550781 7.386719 5.515625 C 7.582031 5.417969 7.769531 5.316406 7.949219 5.199219 C 8.027344 5.148438 8.109375 5.105469 8.191406 5.066406 C 8.265625 5.03125 8.332031 4.992188 8.398438 4.953125 C 8.492188 4.898438 8.585938 4.847656 8.679688 4.800781 C 8.777344 4.75 8.867188 4.691406 8.957031 4.632812 C 9.011719 4.601562 9.066406 4.574219 9.121094 4.546875 C 9.148438 4.53125 9.171875 4.519531 9.195312 4.503906 C 9.328125 4.417969 9.472656 4.347656 9.613281 4.28125 C 9.667969 4.253906 9.714844 4.222656 9.765625 4.191406 C 9.835938 4.144531 9.90625 4.109375 9.980469 4.074219 C 10.035156 4.039062 10.09375 4.003906 10.148438 3.96875 C 10.289062 3.878906 10.289062 3.878906 10.351562 3.859375 C 10.398438 3.839844 10.4375 3.820312 10.480469 3.792969 C 10.550781 3.746094 10.625 3.707031 10.703125 3.667969 C 10.796875 3.617188 10.894531 3.566406 10.988281 3.511719 C 11.074219 3.460938 11.160156 3.417969 11.246094 3.375 C 11.296875 3.34375 11.339844 3.316406 11.386719 3.28125 C 11.421875 3.261719 11.457031 3.246094 11.492188 3.226562 C 11.566406 3.1875 11.636719 3.148438 11.703125 3.105469 C 11.773438 3.058594 11.84375 3.023438 11.917969 2.988281 C 12.015625 2.941406 12.097656 2.886719 12.183594 2.816406 C 12.230469 2.785156 12.273438 2.769531 12.328125 2.75 C 12.339844 2.734375 12.351562 2.722656 12.367188 2.707031 C 12.207031 2.410156 12.046875 2.113281 11.878906 1.820312 C 11.871094 1.808594 11.863281 1.792969 11.855469 1.78125 C 11.847656 1.765625 11.839844 1.753906 11.832031 1.738281 C 11.808594 1.679688 11.820312 1.640625 11.835938 1.582031 C 11.992188 1.347656 12.269531 1.488281 12.492188 1.554688 Z M 12.492188 1.554688 "/>
<path style=" stroke:none;fill-rule:nonzero;fill:rgb(10%,10%,10%);fill-opacity:1;" d="M 17.734375 1.839844 C 17.769531 1.859375 17.804688 1.882812 17.839844 1.910156 C 17.882812 1.941406 17.925781 1.960938 17.976562 1.984375 C 18.0625 2.027344 18.148438 2.074219 18.230469 2.125 C 18.292969 2.160156 18.355469 2.191406 18.417969 2.222656 C 18.515625 2.273438 18.605469 2.328125 18.695312 2.386719 C 18.746094 2.421875 18.800781 2.445312 18.855469 2.472656 C 18.949219 2.515625 19.035156 2.566406 19.117188 2.621094 C 19.164062 2.652344 19.164062 2.652344 19.230469 2.679688 C 19.285156 2.707031 19.285156 2.707031 19.335938 2.75 C 19.386719 2.785156 19.429688 2.804688 19.488281 2.828125 C 19.574219 2.867188 19.65625 2.917969 19.734375 2.964844 C 19.84375 3.03125 19.957031 3.09375 20.070312 3.15625 C 20.230469 3.242188 20.390625 3.328125 20.542969 3.421875 C 20.660156 3.492188 20.777344 3.554688 20.898438 3.617188 C 21.007812 3.675781 21.117188 3.738281 21.222656 3.800781 C 21.339844 3.867188 21.457031 3.933594 21.574219 3.996094 C 21.703125 4.066406 21.832031 4.136719 21.960938 4.214844 C 22.058594 4.273438 22.164062 4.332031 22.265625 4.390625 C 22.285156 4.402344 22.308594 4.414062 22.332031 4.425781 C 22.4375 4.484375 22.542969 4.542969 22.648438 4.597656 C 22.664062 4.605469 22.679688 4.617188 22.695312 4.625 C 22.730469 4.640625 22.761719 4.660156 22.792969 4.675781 C 22.875 4.71875 22.949219 4.765625 23.019531 4.824219 C 23.054688 4.84375 23.085938 4.859375 23.121094 4.878906 C 23.214844 4.925781 23.308594 4.980469 23.402344 5.035156 C 23.503906 5.09375 23.605469 5.148438 23.714844 5.199219 C 23.785156 5.238281 23.855469 5.28125 23.921875 5.324219 C 24.011719 5.382812 24.101562 5.429688 24.199219 5.472656 C 24.25 5.5 24.296875 5.527344 24.347656 5.554688 C 24.457031 5.621094 24.570312 5.683594 24.683594 5.742188 C 24.753906 5.777344 24.816406 5.816406 24.878906 5.859375 C 24.980469 5.921875 25.085938 5.976562 25.191406 6.03125 C 25.359375 6.117188 25.523438 6.210938 25.683594 6.308594 C 25.78125 6.367188 25.878906 6.421875 25.980469 6.472656 C 26.054688 6.511719 26.125 6.550781 26.195312 6.59375 C 26.28125 6.644531 26.367188 6.695312 26.460938 6.742188 C 26.621094 6.824219 26.777344 6.921875 26.933594 7.011719 C 27.019531 7.0625 27.105469 7.109375 27.195312 7.15625 C 27.332031 7.230469 27.46875 7.308594 27.601562 7.394531 C 27.734375 7.480469 27.875 7.550781 28.019531 7.621094 C 28.285156 7.746094 28.59375 7.917969 28.699219 8.199219 C 28.722656 8.273438 28.722656 8.34375 28.722656 8.421875 C 28.722656 8.441406 28.722656 8.457031 28.722656 8.476562 C 28.722656 8.53125 28.722656 8.589844 28.722656 8.648438 C 28.722656 8.691406 28.722656 8.734375 28.722656 8.773438 C 28.722656 8.890625 28.722656 9.007812 28.722656 9.121094 C 28.722656 9.246094 28.722656 9.371094 28.722656 9.496094 C 28.722656 9.710938 28.722656 9.925781 28.722656 10.144531 C 28.71875 10.371094 28.71875 10.59375 28.71875 10.820312 C 28.71875 10.835938 28.71875 10.851562 28.71875 10.863281 C 28.71875 10.9375 28.71875 11.007812 28.71875 11.078125 C 28.71875 11.585938 28.71875 12.089844 28.71875 12.597656 C 28.71875 13.089844 28.71875 13.582031 28.71875 14.074219 C 28.71875 14.089844 28.71875 14.105469 28.71875 14.121094 C 28.71875 14.269531 28.71875 14.421875 28.71875 14.574219 C 28.71875 14.886719 28.71875 15.195312 28.71875 15.507812 C 28.71875 15.519531 28.71875 15.535156 28.71875 15.550781 C 28.714844 16.5 28.714844 17.453125 28.714844 18.40625 C 28.726562 18.40625 28.738281 18.402344 28.753906 18.402344 C 28.769531 18.398438 28.785156 18.398438 28.804688 18.398438 C 28.820312 18.394531 28.835938 18.394531 28.851562 18.390625 C 28.898438 18.386719 28.945312 18.382812 28.992188 18.386719 C 29.011719 18.386719 29.027344 18.386719 29.042969 18.386719 C 29.058594 18.386719 29.078125 18.386719 29.09375 18.386719 C 29.113281 18.386719 29.128906 18.386719 29.148438 18.386719 C 29.1875 18.386719 29.226562 18.390625 29.261719 18.390625 C 29.320312 18.390625 29.378906 18.390625 29.433594 18.394531 C 29.472656 18.394531 29.507812 18.394531 29.546875 18.394531 C 29.570312 18.394531 29.570312 18.394531 29.597656 18.394531 C 29.714844 18.398438 29.804688 18.417969 29.894531 18.496094 C 29.933594 18.570312 29.945312 18.640625 29.9375 18.722656 C 29.902344 18.777344 29.875 18.808594 29.832031 18.851562 C 29.820312 18.863281 29.808594 18.875 29.792969 18.886719 C 29.753906 18.925781 29.714844 18.964844 29.671875 19.003906 C 29.644531 19.03125 29.617188 19.058594 29.585938 19.085938 C 29.507812 19.164062 29.429688 19.238281 29.351562 19.3125 C 29.269531 19.390625 29.1875 19.472656 29.105469 19.550781 C 28.96875 19.683594 28.832031 19.816406 28.691406 19.949219 C 28.515625 20.117188 28.339844 20.289062 28.164062 20.457031 C 28.011719 20.605469 27.859375 20.75 27.707031 20.898438 C 27.65625 20.945312 27.609375 20.992188 27.558594 21.039062 C 27.484375 21.113281 27.40625 21.1875 27.328125 21.261719 C 27.300781 21.289062 27.273438 21.316406 27.246094 21.34375 C 27.207031 21.378906 27.167969 21.417969 27.128906 21.453125 C 27.117188 21.464844 27.105469 21.472656 27.09375 21.484375 C 26.988281 21.589844 26.871094 21.664062 26.714844 21.667969 C 26.523438 21.644531 26.410156 21.507812 26.285156 21.382812 C 26.261719 21.359375 26.238281 21.335938 26.214844 21.3125 C 26.152344 21.253906 26.09375 21.195312 26.03125 21.132812 C 25.96875 21.074219 25.910156 21.011719 25.847656 20.953125 C 25.738281 20.84375 25.628906 20.738281 25.519531 20.632812 C 25.46875 20.582031 25.417969 20.53125 25.367188 20.480469 C 25.335938 20.453125 25.308594 20.425781 25.277344 20.394531 C 25.246094 20.363281 25.210938 20.332031 25.179688 20.300781 C 25.164062 20.28125 25.144531 20.265625 25.128906 20.25 C 25.113281 20.234375 25.097656 20.21875 25.082031 20.203125 C 25.066406 20.1875 25.050781 20.175781 25.035156 20.160156 C 25.003906 20.125 25.003906 20.125 24.960938 20.105469 C 24.960938 20.09375 24.960938 20.082031 24.960938 20.066406 C 24.945312 20.066406 24.933594 20.066406 24.917969 20.066406 C 24.890625 20.039062 24.890625 20.039062 24.855469 19.996094 C 24.804688 19.9375 24.753906 19.886719 24.695312 19.839844 C 24.640625 19.796875 24.59375 19.753906 24.550781 19.699219 C 24.464844 19.605469 24.371094 19.515625 24.277344 19.429688 C 24.222656 19.378906 24.167969 19.328125 24.113281 19.277344 C 24.046875 19.210938 23.976562 19.148438 23.910156 19.085938 C 23.851562 19.03125 23.796875 18.980469 23.742188 18.929688 C 23.722656 18.910156 23.699219 18.886719 23.679688 18.867188 C 23.515625 18.71875 23.515625 18.71875 23.503906 18.632812 C 23.519531 18.550781 23.546875 18.5 23.609375 18.445312 C 23.695312 18.390625 23.753906 18.382812 23.855469 18.382812 C 23.890625 18.382812 23.890625 18.382812 23.929688 18.382812 C 23.96875 18.382812 23.96875 18.382812 24.007812 18.382812 C 24.035156 18.382812 24.0625 18.382812 24.089844 18.382812 C 24.164062 18.382812 24.234375 18.386719 24.304688 18.386719 C 24.378906 18.386719 24.453125 18.386719 24.527344 18.386719 C 24.671875 18.386719 24.816406 18.386719 24.960938 18.386719 C 24.960938 17.359375 24.960938 16.332031 24.960938 15.304688 C 24.960938 15.183594 24.960938 15.0625 24.960938 14.941406 C 24.960938 14.917969 24.960938 14.894531 24.960938 14.871094 C 24.960938 14.480469 24.960938 14.089844 24.960938 13.695312 C 24.960938 13.296875 24.960938 12.894531 24.960938 12.496094 C 24.960938 12.246094 24.960938 12 24.960938 11.753906 C 24.960938 11.582031 24.960938 11.414062 24.960938 11.242188 C 24.960938 11.144531 24.960938 11.046875 24.960938 10.949219 C 24.960938 10.859375 24.960938 10.769531 24.960938 10.679688 C 24.960938 10.648438 24.960938 10.617188 24.960938 10.582031 C 24.980469 10.304688 24.980469 10.304688 24.90625 10.050781 C 24.792969 9.945312 24.675781 9.878906 24.535156 9.816406 C 24.472656 9.785156 24.417969 9.753906 24.363281 9.710938 C 24.300781 9.667969 24.230469 9.636719 24.160156 9.601562 C 23.992188 9.511719 23.828125 9.414062 23.660156 9.316406 C 23.582031 9.269531 23.5 9.222656 23.417969 9.179688 C 23.335938 9.136719 23.253906 9.089844 23.175781 9.039062 C 23.097656 8.996094 23.019531 8.957031 22.941406 8.917969 C 22.867188 8.882812 22.796875 8.839844 22.730469 8.800781 C 22.699219 8.785156 22.667969 8.765625 22.636719 8.75 C 22.621094 8.738281 22.609375 8.730469 22.59375 8.722656 C 22.539062 8.691406 22.480469 8.660156 22.425781 8.628906 C 22.347656 8.585938 22.269531 8.539062 22.191406 8.492188 C 22.054688 8.414062 21.917969 8.335938 21.777344 8.265625 C 21.460938 8.097656 21.152344 7.921875 20.84375 7.742188 C 20.757812 7.695312 20.675781 7.648438 20.589844 7.601562 C 20.511719 7.554688 20.433594 7.511719 20.355469 7.464844 C 20.234375 7.394531 20.117188 7.328125 19.992188 7.265625 C 19.914062 7.222656 19.835938 7.179688 19.757812 7.132812 C 19.691406 7.09375 19.621094 7.058594 19.554688 7.019531 C 19.542969 7.011719 19.53125 7.007812 19.515625 7 C 19.457031 6.964844 19.394531 6.933594 19.335938 6.898438 C 19.222656 6.839844 19.113281 6.777344 19.007812 6.710938 C 18.878906 6.628906 18.742188 6.558594 18.609375 6.492188 C 18.480469 6.425781 18.359375 6.355469 18.238281 6.28125 C 18.183594 6.25 18.132812 6.21875 18.078125 6.191406 C 17.46875 5.875 17.46875 5.875 17.367188 5.574219 C 17.367188 5.527344 17.363281 5.480469 17.363281 5.433594 C 17.363281 5.421875 17.363281 5.40625 17.363281 5.390625 C 17.363281 5.34375 17.363281 5.296875 17.363281 5.246094 C 17.363281 5.214844 17.363281 5.179688 17.363281 5.144531 C 17.363281 5.050781 17.363281 4.957031 17.363281 4.863281 C 17.363281 4.804688 17.363281 4.746094 17.363281 4.6875 C 17.363281 4.503906 17.363281 4.320312 17.363281 4.136719 C 17.363281 3.925781 17.363281 3.714844 17.363281 3.503906 C 17.359375 3.339844 17.359375 3.175781 17.359375 3.011719 C 17.359375 2.914062 17.359375 2.816406 17.359375 2.71875 C 17.359375 2.628906 17.359375 2.535156 17.359375 2.445312 C 17.359375 2.410156 17.359375 2.378906 17.359375 2.34375 C 17.359375 2.296875 17.359375 2.253906 17.359375 2.207031 C 17.359375 2.179688 17.359375 2.15625 17.359375 2.128906 C 17.371094 2.03125 17.394531 1.953125 17.464844 1.882812 C 17.5625 1.824219 17.621094 1.800781 17.734375 1.839844 Z M 17.734375 1.839844 "/>
<path style=" stroke:none;fill-rule:nonzero;fill:rgb(10%,10%,10%);fill-opacity:1;" d="M 8.9375 20.164062 C 9.003906 20.222656 9.035156 20.277344 9.046875 20.359375 C 9.035156 20.460938 8.957031 20.539062 8.898438 20.617188 C 8.878906 20.644531 8.878906 20.644531 8.855469 20.671875 C 8.828125 20.710938 8.800781 20.746094 8.773438 20.785156 C 8.734375 20.835938 8.695312 20.890625 8.660156 20.941406 C 8.59375 21.03125 8.527344 21.121094 8.460938 21.207031 C 8.425781 21.25 8.425781 21.25 8.429688 21.292969 C 8.46875 21.320312 8.507812 21.347656 8.550781 21.371094 C 8.5625 21.378906 8.574219 21.386719 8.585938 21.394531 C 8.621094 21.414062 8.660156 21.4375 8.695312 21.457031 C 8.710938 21.464844 8.722656 21.472656 8.738281 21.480469 C 8.898438 21.574219 9.058594 21.664062 9.222656 21.753906 C 9.359375 21.828125 9.496094 21.90625 9.632812 21.988281 C 9.707031 22.03125 9.78125 22.070312 9.855469 22.109375 C 9.933594 22.152344 10.011719 22.191406 10.085938 22.234375 C 10.105469 22.242188 10.105469 22.242188 10.128906 22.253906 C 10.207031 22.296875 10.28125 22.34375 10.355469 22.398438 C 10.398438 22.429688 10.449219 22.453125 10.496094 22.476562 C 10.570312 22.515625 10.640625 22.554688 10.710938 22.597656 C 10.792969 22.644531 10.875 22.6875 10.964844 22.726562 C 11.050781 22.769531 11.132812 22.8125 11.210938 22.871094 C 11.273438 22.914062 11.339844 22.945312 11.410156 22.980469 C 11.527344 23.042969 11.640625 23.109375 11.753906 23.175781 C 11.796875 23.199219 11.839844 23.222656 11.886719 23.25 C 11.898438 23.257812 11.914062 23.265625 11.929688 23.273438 C 12.023438 23.328125 12.113281 23.378906 12.207031 23.429688 C 12.304688 23.484375 12.402344 23.539062 12.5 23.597656 C 12.617188 23.664062 12.730469 23.726562 12.851562 23.789062 C 12.941406 23.835938 13.027344 23.886719 13.113281 23.9375 C 13.1875 23.980469 13.261719 24.023438 13.339844 24.0625 C 13.445312 24.117188 13.550781 24.179688 13.652344 24.242188 C 13.703125 24.269531 13.753906 24.300781 13.804688 24.328125 C 13.882812 24.367188 13.960938 24.414062 14.035156 24.457031 C 14.21875 24.5625 14.402344 24.664062 14.585938 24.765625 C 14.625 24.789062 14.667969 24.8125 14.707031 24.832031 C 14.753906 24.859375 14.800781 24.882812 14.84375 24.910156 C 14.984375 24.988281 15.125 25.066406 15.265625 25.148438 C 15.300781 25.167969 15.335938 25.1875 15.367188 25.207031 C 15.382812 25.21875 15.398438 25.226562 15.414062 25.234375 C 15.433594 25.246094 15.449219 25.257812 15.46875 25.265625 C 15.480469 25.273438 15.496094 25.285156 15.507812 25.292969 C 15.636719 25.371094 15.746094 25.378906 15.894531 25.375 C 15.925781 25.375 15.925781 25.375 15.960938 25.375 C 16.066406 25.378906 16.066406 25.378906 16.15625 25.335938 C 16.171875 25.320312 16.171875 25.320312 16.183594 25.304688 C 16.214844 25.289062 16.242188 25.277344 16.273438 25.261719 C 16.398438 25.203125 16.515625 25.136719 16.632812 25.070312 C 16.691406 25.035156 16.75 25.003906 16.808594 24.96875 C 16.824219 24.960938 16.835938 24.953125 16.851562 24.941406 C 16.949219 24.886719 17.046875 24.835938 17.144531 24.785156 C 17.234375 24.734375 17.324219 24.683594 17.414062 24.632812 C 17.515625 24.574219 17.621094 24.515625 17.722656 24.460938 C 17.824219 24.40625 17.925781 24.347656 18.027344 24.289062 C 18.222656 24.175781 18.425781 24.0625 18.625 23.953125 C 18.742188 23.890625 18.859375 23.824219 18.976562 23.761719 C 18.996094 23.75 19.011719 23.742188 19.03125 23.730469 C 19.132812 23.671875 19.238281 23.613281 19.339844 23.554688 C 19.515625 23.453125 19.691406 23.351562 19.871094 23.253906 C 20.054688 23.15625 20.238281 23.054688 20.417969 22.949219 C 20.53125 22.886719 20.644531 22.824219 20.757812 22.761719 C 20.867188 22.703125 20.972656 22.640625 21.078125 22.578125 C 21.136719 22.542969 21.199219 22.511719 21.265625 22.480469 C 21.351562 22.4375 21.433594 22.390625 21.515625 22.34375 C 21.546875 22.328125 21.578125 22.308594 21.605469 22.292969 C 21.621094 22.28125 21.636719 22.273438 21.652344 22.265625 C 21.707031 22.234375 21.761719 22.203125 21.820312 22.171875 C 21.898438 22.128906 21.976562 22.082031 22.054688 22.035156 C 22.191406 21.957031 22.328125 21.878906 22.46875 21.808594 C 22.691406 21.6875 22.910156 21.566406 23.128906 21.441406 C 23.273438 21.363281 23.382812 21.320312 23.550781 21.332031 C 23.679688 21.367188 23.777344 21.40625 23.878906 21.492188 C 23.914062 21.511719 23.949219 21.527344 23.984375 21.546875 C 24.074219 21.59375 24.160156 21.644531 24.246094 21.703125 C 24.289062 21.730469 24.289062 21.730469 24.34375 21.757812 C 24.402344 21.785156 24.453125 21.816406 24.507812 21.851562 C 24.617188 21.917969 24.730469 21.972656 24.84375 22.027344 C 24.925781 22.066406 24.992188 22.109375 25.0625 22.164062 C 25.101562 22.183594 25.144531 22.203125 25.1875 22.222656 C 25.300781 22.273438 25.300781 22.273438 25.335938 22.3125 C 25.378906 22.351562 25.417969 22.359375 25.46875 22.378906 C 25.515625 22.40625 25.566406 22.429688 25.613281 22.457031 C 25.628906 22.46875 25.628906 22.46875 25.648438 22.480469 C 25.71875 22.519531 25.789062 22.558594 25.855469 22.597656 C 25.882812 22.613281 25.882812 22.613281 25.910156 22.628906 C 25.925781 22.636719 25.945312 22.648438 25.964844 22.65625 C 25.980469 22.667969 26 22.679688 26.015625 22.6875 C 26.0625 22.714844 26.0625 22.714844 26.101562 22.753906 C 26.136719 22.769531 26.171875 22.78125 26.203125 22.796875 C 26.253906 22.820312 26.300781 22.847656 26.347656 22.875 C 26.359375 22.878906 26.371094 22.886719 26.382812 22.894531 C 26.453125 22.933594 26.523438 22.972656 26.59375 23.011719 C 26.609375 23.023438 26.625 23.03125 26.640625 23.039062 C 26.734375 23.097656 26.800781 23.140625 26.835938 23.25 C 26.855469 23.347656 26.824219 23.410156 26.773438 23.488281 C 26.714844 23.550781 26.644531 23.582031 26.566406 23.617188 C 26.511719 23.644531 26.464844 23.675781 26.410156 23.707031 C 26.328125 23.765625 26.238281 23.808594 26.148438 23.847656 C 26.074219 23.886719 26.007812 23.929688 25.941406 23.972656 C 25.890625 24.007812 25.832031 24.035156 25.777344 24.0625 C 25.753906 24.074219 25.734375 24.085938 25.714844 24.101562 C 25.660156 24.132812 25.609375 24.15625 25.550781 24.179688 C 25.484375 24.210938 25.429688 24.25 25.371094 24.289062 C 25.316406 24.324219 25.261719 24.351562 25.203125 24.375 C 25.191406 24.386719 25.179688 24.394531 25.167969 24.40625 C 25.117188 24.441406 25.066406 24.46875 25.011719 24.496094 C 24.992188 24.507812 24.972656 24.515625 24.953125 24.527344 C 24.914062 24.546875 24.875 24.566406 24.835938 24.585938 C 24.765625 24.621094 24.699219 24.660156 24.636719 24.703125 C 24.582031 24.738281 24.527344 24.765625 24.46875 24.792969 C 24.4375 24.8125 24.40625 24.832031 24.378906 24.851562 C 24.289062 24.910156 24.199219 24.953125 24.105469 24.996094 C 24.035156 25.03125 23.96875 25.074219 23.902344 25.121094 C 23.847656 25.152344 23.792969 25.179688 23.734375 25.207031 C 23.710938 25.222656 23.6875 25.238281 23.660156 25.25 C 23.566406 25.308594 23.46875 25.359375 23.371094 25.410156 C 23.296875 25.449219 23.226562 25.492188 23.152344 25.535156 C 23.097656 25.566406 23.042969 25.59375 22.984375 25.625 C 22.925781 25.65625 22.871094 25.6875 22.816406 25.722656 C 22.761719 25.753906 22.710938 25.785156 22.65625 25.8125 C 22.546875 25.871094 22.441406 25.929688 22.335938 25.992188 C 22.210938 26.066406 22.085938 26.136719 21.957031 26.203125 C 21.921875 26.21875 21.921875 26.21875 21.886719 26.238281 C 21.839844 26.261719 21.789062 26.289062 21.742188 26.3125 C 21.71875 26.324219 21.695312 26.335938 21.671875 26.347656 C 21.648438 26.359375 21.628906 26.371094 21.605469 26.382812 C 21.558594 26.410156 21.527344 26.433594 21.488281 26.472656 C 21.449219 26.492188 21.410156 26.511719 21.367188 26.53125 C 21.355469 26.542969 21.34375 26.550781 21.328125 26.558594 C 21.28125 26.59375 21.234375 26.621094 21.183594 26.644531 C 21.15625 26.660156 21.15625 26.660156 21.125 26.675781 C 21.105469 26.6875 21.082031 26.699219 21.0625 26.710938 C 21.015625 26.734375 20.96875 26.757812 20.921875 26.78125 C 20.898438 26.792969 20.878906 26.804688 20.855469 26.816406 C 20.800781 26.84375 20.746094 26.875 20.695312 26.90625 C 20.664062 26.921875 20.636719 26.9375 20.605469 26.953125 C 20.539062 26.988281 20.476562 27.027344 20.414062 27.066406 C 20.328125 27.125 20.242188 27.167969 20.148438 27.210938 C 20.074219 27.246094 20.007812 27.289062 19.941406 27.335938 C 19.886719 27.367188 19.832031 27.394531 19.777344 27.421875 C 19.707031 27.460938 19.636719 27.503906 19.570312 27.546875 C 19.554688 27.554688 19.542969 27.566406 19.527344 27.574219 C 19.507812 27.585938 19.507812 27.585938 19.488281 27.597656 C 19.449219 27.621094 19.449219 27.621094 19.398438 27.636719 C 19.339844 27.660156 19.289062 27.691406 19.234375 27.726562 C 19.042969 27.847656 19.042969 27.847656 18.96875 27.875 C 18.914062 27.898438 18.875 27.921875 18.828125 27.953125 C 18.757812 28 18.6875 28.039062 18.613281 28.074219 C 18.554688 28.109375 18.5 28.144531 18.441406 28.179688 C 18.300781 28.265625 18.300781 28.265625 18.234375 28.292969 C 18.179688 28.3125 18.140625 28.335938 18.09375 28.371094 C 18.023438 28.414062 17.953125 28.453125 17.878906 28.488281 C 17.828125 28.515625 17.78125 28.542969 17.734375 28.574219 C 17.652344 28.621094 17.566406 28.667969 17.484375 28.710938 C 17.429688 28.738281 17.386719 28.765625 17.347656 28.804688 C 17.3125 28.820312 17.277344 28.832031 17.246094 28.84375 C 17.203125 28.867188 17.164062 28.890625 17.125 28.910156 C 17.058594 28.953125 16.988281 28.992188 16.914062 29.023438 C 16.839844 29.058594 16.769531 29.105469 16.703125 29.148438 C 16.640625 29.191406 16.574219 29.226562 16.511719 29.261719 C 16.488281 29.273438 16.464844 29.285156 16.441406 29.300781 C 16.390625 29.324219 16.34375 29.351562 16.296875 29.378906 C 16.253906 29.402344 16.210938 29.425781 16.167969 29.449219 C 16.152344 29.457031 16.136719 29.46875 16.121094 29.476562 C 16.105469 29.484375 16.09375 29.492188 16.078125 29.5 C 15.976562 29.546875 15.867188 29.554688 15.753906 29.535156 C 15.617188 29.484375 15.472656 29.421875 15.367188 29.320312 C 15.328125 29.296875 15.285156 29.277344 15.246094 29.261719 C 15.171875 29.226562 15.117188 29.195312 15.0625 29.140625 C 15.019531 29.121094 14.980469 29.101562 14.941406 29.082031 C 14.863281 29.046875 14.800781 29.011719 14.734375 28.964844 C 14.703125 28.949219 14.675781 28.9375 14.644531 28.925781 C 14.574219 28.894531 14.511719 28.863281 14.449219 28.824219 C 14.421875 28.808594 14.421875 28.808594 14.394531 28.792969 C 14.378906 28.785156 14.359375 28.773438 14.34375 28.765625 C 14.316406 28.75 14.316406 28.75 14.289062 28.734375 C 14.246094 28.707031 14.246094 28.707031 14.203125 28.667969 C 14.171875 28.652344 14.136719 28.640625 14.101562 28.628906 C 14.054688 28.601562 14.011719 28.578125 13.96875 28.554688 C 13.878906 28.503906 13.785156 28.453125 13.695312 28.40625 C 13.621094 28.367188 13.554688 28.324219 13.488281 28.277344 C 13.421875 28.234375 13.351562 28.199219 13.28125 28.164062 C 13.210938 28.125 13.148438 28.082031 13.082031 28.039062 C 13.039062 28.011719 13.039062 28.011719 12.980469 27.984375 C 12.902344 27.945312 12.824219 27.898438 12.75 27.851562 C 12.648438 27.789062 12.648438 27.789062 12.539062 27.738281 C 12.488281 27.71875 12.445312 27.691406 12.398438 27.660156 C 12.347656 27.625 12.300781 27.597656 12.246094 27.570312 C 12.175781 27.535156 12.113281 27.496094 12.046875 27.453125 C 11.992188 27.417969 11.9375 27.390625 11.878906 27.363281 C 11.832031 27.339844 11.789062 27.316406 11.742188 27.292969 C 11.71875 27.28125 11.695312 27.269531 11.675781 27.257812 C 11.621094 27.230469 11.578125 27.199219 11.53125 27.164062 C 11.480469 27.140625 11.429688 27.117188 11.378906 27.09375 C 11.328125 27.066406 11.328125 27.066406 11.277344 27.027344 C 11.21875 26.984375 11.164062 26.957031 11.097656 26.925781 C 10.988281 26.875 10.988281 26.875 10.949219 26.835938 C 10.910156 26.800781 10.867188 26.789062 10.816406 26.769531 C 10.769531 26.742188 10.722656 26.71875 10.671875 26.691406 C 10.660156 26.683594 10.648438 26.675781 10.636719 26.671875 C 10.566406 26.632812 10.496094 26.59375 10.429688 26.550781 C 10.402344 26.535156 10.402344 26.535156 10.378906 26.523438 C 10.222656 26.433594 10.222656 26.433594 10.171875 26.402344 C 10.140625 26.382812 10.105469 26.363281 10.070312 26.34375 C 10.050781 26.332031 10.035156 26.324219 10.015625 26.3125 C 9.992188 26.296875 9.992188 26.296875 9.964844 26.28125 C 9.917969 26.253906 9.917969 26.253906 9.878906 26.214844 C 9.84375 26.203125 9.808594 26.1875 9.777344 26.175781 C 9.726562 26.152344 9.679688 26.125 9.632812 26.097656 C 9.621094 26.089844 9.609375 26.085938 9.59375 26.078125 C 9.527344 26.039062 9.457031 26 9.386719 25.957031 C 9.363281 25.945312 9.363281 25.945312 9.335938 25.929688 C 9.316406 25.917969 9.300781 25.910156 9.28125 25.898438 C 9.253906 25.882812 9.253906 25.882812 9.230469 25.867188 C 9.183594 25.839844 9.183594 25.839844 9.144531 25.800781 C 9.109375 25.785156 9.074219 25.773438 9.039062 25.761719 C 8.996094 25.738281 8.953125 25.714844 8.910156 25.691406 C 8.84375 25.65625 8.777344 25.625 8.710938 25.59375 C 8.65625 25.566406 8.609375 25.535156 8.5625 25.503906 C 8.492188 25.457031 8.421875 25.417969 8.347656 25.386719 C 8.253906 25.34375 8.171875 25.292969 8.085938 25.234375 C 8.039062 25.203125 8.039062 25.203125 7.980469 25.175781 C 7.90625 25.144531 7.84375 25.101562 7.777344 25.058594 C 7.730469 25.027344 7.730469 25.027344 7.667969 24.996094 C 7.613281 24.96875 7.613281 24.96875 7.566406 24.933594 C 7.5 24.882812 7.433594 24.851562 7.359375 24.820312 C 7.289062 24.785156 7.222656 24.746094 7.15625 24.707031 C 7.011719 24.621094 6.863281 24.539062 6.714844 24.457031 C 6.699219 24.449219 6.683594 24.4375 6.667969 24.429688 C 6.589844 24.386719 6.511719 24.347656 6.429688 24.316406 C 6.386719 24.296875 6.347656 24.277344 6.304688 24.257812 C 6.292969 24.25 6.277344 24.246094 6.265625 24.238281 C 6.21875 24.296875 6.175781 24.359375 6.128906 24.417969 C 6.109375 24.445312 6.089844 24.46875 6.074219 24.496094 C 5.933594 24.679688 5.796875 24.867188 5.664062 25.058594 C 5.484375 25.316406 5.484375 25.316406 5.394531 25.339844 C 5.3125 25.324219 5.257812 25.3125 5.183594 25.269531 C 5.066406 25.09375 5.054688 24.839844 5.019531 24.632812 C 5.011719 24.597656 5.007812 24.566406 5 24.535156 C 4.988281 24.464844 4.976562 24.394531 4.964844 24.328125 C 4.945312 24.21875 4.925781 24.109375 4.90625 24.003906 C 4.898438 23.964844 4.894531 23.929688 4.886719 23.894531 C 4.882812 23.875 4.878906 23.859375 4.878906 23.839844 C 4.867188 23.785156 4.859375 23.734375 4.847656 23.679688 C 4.804688 23.445312 4.761719 23.207031 4.71875 22.972656 C 4.652344 22.617188 4.589844 22.261719 4.527344 21.90625 C 4.515625 21.847656 4.503906 21.789062 4.496094 21.730469 C 4.480469 21.652344 4.464844 21.570312 4.453125 21.492188 C 4.445312 21.464844 4.441406 21.441406 4.4375 21.417969 C 4.433594 21.394531 4.429688 21.371094 4.425781 21.347656 C 4.421875 21.328125 4.417969 21.308594 4.414062 21.289062 C 4.402344 21.195312 4.394531 21.117188 4.449219 21.035156 C 4.460938 21.015625 4.460938 21.015625 4.472656 21 C 4.585938 20.867188 4.6875 20.816406 4.863281 20.789062 C 4.882812 20.785156 4.90625 20.78125 4.929688 20.777344 C 4.992188 20.769531 5.054688 20.757812 5.121094 20.746094 C 5.199219 20.734375 5.277344 20.71875 5.359375 20.707031 C 5.566406 20.667969 5.773438 20.632812 5.984375 20.597656 C 6.085938 20.582031 6.1875 20.5625 6.292969 20.546875 C 6.496094 20.511719 6.703125 20.476562 6.90625 20.441406 C 7.011719 20.425781 7.117188 20.40625 7.226562 20.386719 C 7.449219 20.351562 7.675781 20.3125 7.902344 20.273438 C 7.9375 20.265625 7.9375 20.265625 7.972656 20.261719 C 8.019531 20.253906 8.066406 20.246094 8.113281 20.238281 C 8.222656 20.21875 8.332031 20.199219 8.4375 20.179688 C 8.460938 20.175781 8.480469 20.171875 8.503906 20.167969 C 8.542969 20.160156 8.582031 20.152344 8.621094 20.144531 C 8.742188 20.125 8.824219 20.125 8.9375 20.164062 Z M 8.9375 20.164062 "/>
<path style=" stroke:none;fill-rule:nonzero;fill:rgb(80%,20%,20%);fill-opacity:1;" d="M 16.632812 7.769531 C 16.691406 7.800781 16.734375 7.835938 16.777344 7.886719 C 16.804688 8.046875 16.738281 8.21875 16.691406 8.371094 C 16.546875 8.886719 16.613281 9.550781 16.820312 10.039062 C 16.839844 10.089844 16.855469 10.136719 16.871094 10.1875 C 16.917969 10.324219 16.96875 10.449219 17.035156 10.578125 C 17.0625 10.636719 17.074219 10.691406 17.082031 10.753906 C 17.09375 10.753906 17.109375 10.753906 17.121094 10.753906 C 17.128906 10.765625 17.132812 10.777344 17.140625 10.792969 C 17.148438 10.816406 17.148438 10.816406 17.160156 10.839844 C 17.167969 10.855469 17.175781 10.871094 17.183594 10.886719 C 17.195312 10.917969 17.210938 10.945312 17.226562 10.976562 C 17.246094 11.011719 17.246094 11.011719 17.246094 11.070312 C 17.257812 11.070312 17.273438 11.070312 17.285156 11.070312 C 17.292969 11.082031 17.296875 11.097656 17.304688 11.109375 C 17.390625 11.28125 17.488281 11.445312 17.59375 11.605469 C 17.601562 11.621094 17.613281 11.636719 17.621094 11.65625 C 17.644531 11.6875 17.664062 11.722656 17.6875 11.757812 C 17.699219 11.773438 17.710938 11.792969 17.71875 11.808594 C 17.730469 11.824219 17.742188 11.839844 17.75 11.859375 C 17.773438 11.898438 17.785156 11.933594 17.796875 11.980469 C 17.808594 11.980469 17.824219 11.980469 17.835938 11.980469 C 17.84375 11.996094 17.851562 12.011719 17.863281 12.027344 C 17.878906 12.058594 17.878906 12.058594 17.894531 12.089844 C 17.90625 12.109375 17.917969 12.128906 17.929688 12.148438 C 17.953125 12.199219 17.953125 12.199219 18 12.21875 C 18.089844 12.355469 18.089844 12.355469 18.101562 12.4375 C 18.117188 12.4375 18.128906 12.4375 18.144531 12.4375 C 18.171875 12.472656 18.199219 12.511719 18.226562 12.550781 C 18.242188 12.574219 18.261719 12.597656 18.277344 12.621094 C 18.289062 12.640625 18.289062 12.640625 18.300781 12.65625 C 18.339844 12.707031 18.375 12.757812 18.414062 12.808594 C 18.457031 12.867188 18.5 12.921875 18.535156 12.988281 C 18.570312 13.046875 18.609375 13.09375 18.652344 13.148438 C 18.691406 13.195312 18.730469 13.246094 18.765625 13.296875 C 18.777344 13.308594 18.785156 13.320312 18.796875 13.335938 C 18.847656 13.402344 18.894531 13.46875 18.9375 13.542969 C 18.972656 13.589844 19.007812 13.636719 19.039062 13.683594 C 19.050781 13.695312 19.058594 13.707031 19.066406 13.71875 C 19.082031 13.738281 19.082031 13.738281 19.09375 13.753906 C 19.101562 13.765625 19.109375 13.777344 19.121094 13.789062 C 19.140625 13.8125 19.160156 13.839844 19.179688 13.863281 C 19.203125 13.898438 19.203125 13.898438 19.203125 13.957031 C 19.21875 13.957031 19.230469 13.957031 19.246094 13.957031 C 19.273438 13.996094 19.300781 14.035156 19.328125 14.078125 C 19.441406 14.246094 19.441406 14.246094 19.5625 14.410156 C 19.628906 14.507812 19.691406 14.605469 19.753906 14.703125 C 19.792969 14.761719 19.828125 14.820312 19.867188 14.875 C 19.945312 14.996094 20.023438 15.121094 20.101562 15.246094 C 20.121094 15.28125 20.140625 15.3125 20.164062 15.347656 C 20.277344 15.535156 20.371094 15.730469 20.464844 15.925781 C 20.488281 15.976562 20.515625 16.023438 20.542969 16.074219 C 20.589844 16.167969 20.632812 16.265625 20.671875 16.363281 C 20.683594 16.390625 20.683594 16.390625 20.695312 16.414062 C 20.914062 16.957031 21.023438 17.492188 21.023438 18.074219 C 21.023438 18.128906 21.023438 18.183594 21.023438 18.238281 C 21.027344 18.535156 21.011719 18.835938 20.945312 19.125 C 20.941406 19.140625 20.9375 19.15625 20.933594 19.171875 C 20.890625 19.355469 20.835938 19.535156 20.777344 19.710938 C 20.769531 19.722656 20.765625 19.738281 20.761719 19.75 C 20.675781 20.003906 20.554688 20.242188 20.429688 20.480469 C 20.414062 20.480469 20.402344 20.480469 20.386719 20.480469 C 20.382812 20.503906 20.382812 20.503906 20.382812 20.527344 C 20.367188 20.585938 20.34375 20.621094 20.3125 20.671875 C 20.300781 20.6875 20.289062 20.707031 20.273438 20.722656 C 20.261719 20.742188 20.25 20.757812 20.238281 20.777344 C 20.222656 20.796875 20.210938 20.816406 20.199219 20.832031 C 20.023438 21.082031 19.828125 21.3125 19.613281 21.53125 C 19.59375 21.546875 19.574219 21.566406 19.558594 21.585938 C 19.425781 21.71875 19.285156 21.832031 19.136719 21.941406 C 19.105469 21.964844 19.074219 21.988281 19.042969 22.011719 C 18.769531 22.214844 18.472656 22.375 18.164062 22.519531 C 18.144531 22.527344 18.125 22.535156 18.105469 22.546875 C 17.976562 22.605469 17.84375 22.648438 17.707031 22.691406 C 17.65625 22.710938 17.605469 22.726562 17.550781 22.746094 C 17.363281 22.816406 17.136719 22.886719 16.9375 22.835938 C 16.886719 22.800781 16.886719 22.800781 16.855469 22.753906 C 16.84375 22.6875 16.84375 22.6875 16.855469 22.617188 C 16.898438 22.566406 16.898438 22.566406 16.960938 22.519531 C 16.984375 22.496094 17.011719 22.472656 17.035156 22.453125 C 17.078125 22.417969 17.121094 22.382812 17.164062 22.347656 C 17.417969 22.136719 17.605469 21.894531 17.796875 21.628906 C 17.804688 21.617188 17.8125 21.605469 17.820312 21.59375 C 17.859375 21.539062 17.890625 21.488281 17.917969 21.429688 C 17.933594 21.429688 17.945312 21.429688 17.960938 21.429688 C 17.960938 21.417969 17.964844 21.402344 17.96875 21.386719 C 17.980469 21.332031 17.980469 21.332031 18 21.273438 C 18.011719 21.273438 18.027344 21.273438 18.039062 21.273438 C 18.042969 21.257812 18.042969 21.242188 18.046875 21.226562 C 18.0625 21.148438 18.089844 21.089844 18.121094 21.019531 C 18.285156 20.671875 18.371094 20.28125 18.371094 19.898438 C 18.371094 19.878906 18.371094 19.863281 18.371094 19.84375 C 18.371094 19.808594 18.371094 19.773438 18.371094 19.734375 C 18.371094 19.679688 18.371094 19.625 18.371094 19.570312 C 18.371094 19.304688 18.367188 19.039062 18.285156 18.78125 C 18.273438 18.722656 18.265625 18.664062 18.257812 18.601562 C 18.246094 18.542969 18.226562 18.484375 18.203125 18.425781 C 18.191406 18.386719 18.179688 18.347656 18.167969 18.3125 C 18.117188 18.148438 18.117188 18.148438 18.058594 17.992188 C 18.042969 17.960938 18.03125 17.925781 18.019531 17.894531 C 17.960938 17.742188 17.890625 17.597656 17.816406 17.457031 C 17.792969 17.414062 17.773438 17.375 17.753906 17.332031 C 17.746094 17.320312 17.738281 17.304688 17.730469 17.289062 C 17.714844 17.261719 17.703125 17.234375 17.6875 17.207031 C 17.65625 17.140625 17.617188 17.082031 17.570312 17.023438 C 17.554688 16.992188 17.535156 16.960938 17.519531 16.925781 C 17.464844 16.832031 17.40625 16.738281 17.34375 16.648438 C 17.335938 16.636719 17.328125 16.625 17.320312 16.613281 C 17.269531 16.535156 17.210938 16.472656 17.144531 16.410156 C 17.128906 16.382812 17.113281 16.355469 17.101562 16.332031 C 17.089844 16.320312 17.082031 16.308594 17.070312 16.300781 C 17.039062 16.269531 17.039062 16.269531 17.019531 16.210938 C 17 16.199219 16.980469 16.1875 16.960938 16.171875 C 16.953125 16.152344 16.945312 16.132812 16.9375 16.113281 C 16.925781 16.105469 16.910156 16.101562 16.898438 16.09375 C 16.898438 16.160156 16.902344 16.222656 16.90625 16.289062 C 16.90625 16.316406 16.90625 16.316406 16.90625 16.34375 C 16.910156 16.445312 16.917969 16.550781 16.929688 16.65625 C 16.957031 16.949219 16.964844 17.238281 16.964844 17.53125 C 16.964844 17.605469 16.964844 17.675781 16.964844 17.746094 C 16.96875 18.226562 16.941406 18.742188 16.777344 19.195312 C 16.765625 19.222656 16.757812 19.246094 16.75 19.269531 C 16.507812 19.96875 16.042969 20.488281 15.363281 20.832031 C 15.269531 20.875 15.207031 20.898438 15.105469 20.890625 C 15.007812 20.839844 14.9375 20.789062 14.878906 20.699219 C 14.867188 20.640625 14.871094 20.578125 14.871094 20.519531 C 14.871094 20.5 14.871094 20.484375 14.871094 20.464844 C 14.875 20.238281 14.90625 20.015625 15.003906 19.808594 C 15.023438 19.769531 15.023438 19.769531 15.019531 19.710938 C 15.035156 19.710938 15.046875 19.710938 15.0625 19.710938 C 15.074219 19.652344 15.089844 19.59375 15.101562 19.53125 C 15.117188 19.53125 15.128906 19.53125 15.144531 19.53125 C 15.148438 19.492188 15.15625 19.453125 15.164062 19.414062 C 15.175781 19.414062 15.191406 19.414062 15.203125 19.414062 C 15.203125 19.402344 15.203125 19.386719 15.203125 19.375 C 15.152344 19.390625 15.152344 19.390625 15.101562 19.414062 C 15.09375 19.433594 15.089844 19.453125 15.082031 19.472656 C 15.035156 19.527344 15.007812 19.550781 14.9375 19.574219 C 14.890625 19.613281 14.863281 19.652344 14.835938 19.710938 C 14.824219 19.710938 14.808594 19.710938 14.796875 19.710938 C 14.78125 19.738281 14.769531 19.761719 14.753906 19.789062 C 14.742188 19.789062 14.726562 19.789062 14.714844 19.789062 C 14.710938 19.804688 14.707031 19.816406 14.703125 19.832031 C 14.667969 19.898438 14.628906 19.941406 14.578125 19.996094 C 14.546875 20.027344 14.546875 20.027344 14.53125 20.085938 C 14.515625 20.09375 14.503906 20.101562 14.488281 20.105469 C 14.46875 20.144531 14.46875 20.144531 14.445312 20.1875 C 14.4375 20.203125 14.429688 20.222656 14.421875 20.238281 C 14.414062 20.253906 14.40625 20.273438 14.398438 20.289062 C 14.386719 20.308594 14.378906 20.324219 14.371094 20.34375 C 14.335938 20.414062 14.304688 20.484375 14.285156 20.5625 C 14.273438 20.5625 14.257812 20.5625 14.246094 20.5625 C 14.242188 20.585938 14.238281 20.609375 14.238281 20.632812 C 14.230469 20.6875 14.21875 20.734375 14.203125 20.785156 C 14.132812 21.03125 14.117188 21.371094 14.222656 21.609375 C 14.230469 21.636719 14.238281 21.667969 14.242188 21.695312 C 14.257812 21.753906 14.273438 21.808594 14.296875 21.863281 C 14.328125 21.925781 14.328125 21.925781 14.328125 21.984375 C 14.339844 21.984375 14.351562 21.984375 14.367188 21.984375 C 14.378906 22.007812 14.378906 22.007812 14.390625 22.03125 C 14.488281 22.242188 14.488281 22.242188 14.632812 22.417969 C 14.671875 22.480469 14.671875 22.480469 14.671875 22.546875 C 14.652344 22.617188 14.652344 22.617188 14.625 22.664062 C 14.535156 22.71875 14.449219 22.710938 14.347656 22.695312 C 14.054688 22.617188 13.746094 22.480469 13.488281 22.320312 C 13.46875 22.308594 13.445312 22.296875 13.425781 22.28125 C 13.089844 22.078125 12.761719 21.851562 12.488281 21.570312 C 12.472656 21.554688 12.457031 21.535156 12.4375 21.519531 C 12.421875 21.503906 12.40625 21.488281 12.386719 21.46875 C 12.375 21.460938 12.363281 21.449219 12.351562 21.4375 C 12.066406 21.171875 11.8125 20.824219 11.632812 20.480469 C 11.617188 20.457031 11.605469 20.429688 11.589844 20.40625 C 11.488281 20.222656 11.398438 20.042969 11.328125 19.847656 C 11.320312 19.835938 11.316406 19.824219 11.3125 19.808594 C 10.882812 18.660156 10.917969 17.417969 11.449219 16.3125 C 11.5 16.210938 11.554688 16.113281 11.609375 16.011719 C 11.648438 15.945312 11.683594 15.878906 11.71875 15.808594 C 11.769531 15.707031 11.828125 15.609375 11.890625 15.511719 C 11.921875 15.460938 11.921875 15.460938 11.9375 15.402344 C 11.953125 15.402344 11.964844 15.402344 11.980469 15.402344 C 11.980469 15.386719 11.984375 15.371094 11.988281 15.355469 C 12 15.304688 12.015625 15.265625 12.046875 15.21875 C 12.054688 15.203125 12.0625 15.1875 12.074219 15.171875 C 12.082031 15.15625 12.09375 15.140625 12.101562 15.125 C 12.175781 15.003906 12.234375 14.878906 12.285156 14.75 C 12.308594 14.695312 12.328125 14.644531 12.347656 14.59375 C 12.359375 14.570312 12.371094 14.542969 12.378906 14.519531 C 12.394531 14.480469 12.414062 14.441406 12.429688 14.402344 C 12.46875 14.300781 12.492188 14.199219 12.519531 14.09375 C 12.53125 14.058594 12.539062 14.027344 12.546875 13.992188 C 12.558594 13.964844 12.558594 13.964844 12.566406 13.933594 C 12.570312 13.917969 12.574219 13.898438 12.578125 13.882812 C 12.617188 13.699219 12.617188 13.511719 12.613281 13.328125 C 12.613281 13.285156 12.613281 13.246094 12.613281 13.203125 C 12.613281 12.976562 12.597656 12.765625 12.550781 12.542969 C 12.546875 12.527344 12.542969 12.507812 12.539062 12.488281 C 12.523438 12.402344 12.523438 12.402344 12.488281 12.316406 C 12.476562 12.246094 12.476562 12.199219 12.519531 12.136719 C 12.632812 12.007812 12.632812 12.007812 12.714844 11.980469 C 12.835938 11.984375 12.9375 12.027344 13.042969 12.074219 C 13.0625 12.082031 13.078125 12.089844 13.097656 12.097656 C 13.367188 12.21875 13.621094 12.371094 13.855469 12.542969 C 13.894531 12.570312 13.933594 12.59375 13.980469 12.613281 C 14 12.632812 14.019531 12.652344 14.039062 12.671875 C 14.054688 12.679688 14.066406 12.6875 14.082031 12.691406 C 14.082031 12.707031 14.082031 12.71875 14.082031 12.730469 C 14.109375 12.746094 14.136719 12.757812 14.164062 12.773438 C 14.164062 12.785156 14.164062 12.796875 14.164062 12.8125 C 14.191406 12.824219 14.21875 12.835938 14.246094 12.851562 C 14.246094 12.863281 14.246094 12.875 14.246094 12.890625 C 14.257812 12.890625 14.273438 12.890625 14.285156 12.890625 C 14.277344 12.824219 14.273438 12.761719 14.265625 12.691406 C 14.25 12.691406 14.238281 12.691406 14.222656 12.691406 C 14.199219 12.609375 14.179688 12.539062 14.183594 12.457031 C 14.171875 12.457031 14.15625 12.457031 14.144531 12.457031 C 13.941406 11.609375 13.917969 10.753906 14.285156 9.945312 C 14.292969 9.925781 14.304688 9.90625 14.3125 9.886719 C 14.328125 9.847656 14.347656 9.804688 14.367188 9.765625 C 14.378906 9.765625 14.394531 9.765625 14.40625 9.765625 C 14.410156 9.746094 14.410156 9.746094 14.414062 9.726562 C 14.433594 9.652344 14.46875 9.597656 14.511719 9.535156 C 14.519531 9.523438 14.527344 9.511719 14.535156 9.5 C 14.671875 9.304688 14.816406 9.121094 14.972656 8.945312 C 14.996094 8.917969 15.019531 8.890625 15.042969 8.867188 C 15.132812 8.769531 15.226562 8.683594 15.328125 8.601562 C 15.371094 8.5625 15.414062 8.523438 15.457031 8.488281 C 15.488281 8.460938 15.488281 8.460938 15.53125 8.460938 C 15.53125 8.449219 15.53125 8.4375 15.53125 8.421875 C 15.566406 8.390625 15.605469 8.363281 15.644531 8.335938 C 15.65625 8.324219 15.667969 8.316406 15.679688 8.308594 C 15.824219 8.203125 15.972656 8.105469 16.121094 8.007812 C 16.144531 7.992188 16.144531 7.992188 16.164062 7.980469 C 16.207031 7.953125 16.25 7.925781 16.289062 7.898438 C 16.308594 7.882812 16.308594 7.882812 16.328125 7.871094 C 16.515625 7.75 16.515625 7.75 16.632812 7.769531 Z M 14.304688 12.910156 C 14.328125 12.9375 14.328125 12.9375 14.347656 12.96875 C 14.347656 12.949219 14.347656 12.929688 14.347656 12.910156 C 14.332031 12.910156 14.320312 12.910156 14.304688 12.910156 Z M 14.304688 12.910156 "/>
</g>
</svg>
