<?xml version="1.0" encoding="UTF-8"?>
<svg width="64" height="64" viewBox="0 0 64 64" xmlns="http://www.w3.org/2000/svg">
  <defs>
    <radialGradient id="pocketGradient" cx="50%" cy="50%" r="50%">
      <stop offset="0%" stop-color="#e0eefe"/>
      <stop offset="100%" stop-color="#3577b3"/>
    </radialGradient>
  </defs>
  <rect x="4" y="4" width="56" height="56" rx="12" fill="url(#pocketGradient)" stroke="#3577b3" stroke-width="2"/>
  <path d="M20,32 a12,12 0 1,1 24,0 a12,12 0 1,1 -24,0" fill="none" stroke="#fff" stroke-width="2"/>
  <path d="M24,32 a8,8 0 1,1 16,0 a8,8 0 1,1 -16,0" fill="none" stroke="#fff" stroke-width="2"/>
  <path d="M28,32 a4,4 0 1,1 8,0 a4,4 0 1,1 -8,0" fill="none" stroke="#fff" stroke-width="2"/>
  <polyline points="32,16 32,32 48,32" fill="none" stroke="#3577b3" stroke-width="2" stroke-linecap="round" stroke-linejoin="round"/>
</svg>
